<svg xmlns="http://www.w3.org/2000/svg" width="1600" height="900" viewBox="0 0 1600 900" font-family="Helvetica, Arial, sans-serif"><rect width="1600" height="900" fill="#000000"></rect><line x1="100" y1="0" x2="100" y2="900" stroke="#FFFFFF" stroke-opacity="0.05"></line><line x1="200" y1="0" x2="200" y2="900" stroke="#FFFFFF" stroke-opacity="0.05"></line><line x1="300" y1="0" x2="300" y2="900" stroke="#FFFFFF" stroke-opacity="0.05"></line><line x1="400" y1="0" x2="400" y2="900" stroke="#FFFFFF" stroke-opacity="0.05"></line><line x1="500" y1="0" x2="500" y2="900" stroke="#FFFFFF" stroke-opacity="0.05"></line><line x1="600" y1="0" x2="600" y2="900" stroke="#FFFFFF" stroke-opacity="0.05"></line><line x1="700" y1="0" x2="700" y2="900" stroke="#FFFFFF" stroke-opacity="0.05"></line><line x1="800" y1="0" x2="800" y2="900" stroke="#FFFFFF" stroke-opacity="0.05"></line><line x1="900" y1="0" x2="900" y2="900" stroke="#FFFFFF" stroke-opacity="0.05"></line><line x1="1000" y1="0" x2="1000" y2="900" stroke="#FFFFFF" stroke-opacity="0.05"></line><line x1="1100" y1="0" x2="1100" y2="900" stroke="#FFFFFF" stroke-opacity="0.05"></line><line x1="1200" y1="0" x2="1200" y2="900" stroke="#FFFFFF" stroke-opacity="0.05"></line><line x1="1300" y1="0" x2="1300" y2="900" stroke="#FFFFFF" stroke-opacity="0.05"></line><line x1="1400" y1="0" x2="1400" y2="900" stroke="#FFFFFF" stroke-opacity="0.05"></line><line x1="1500" y1="0" x2="1500" y2="900" stroke="#FFFFFF" stroke-opacity="0.05"></line><line x1="0" y1="100" x2="1600" y2="100" stroke="#FFFFFF" stroke-opacity="0.05"></line><line x1="0" y1="200" x2="1600" y2="200" stroke="#FFFFFF" stroke-opacity="0.05"></line><line x1="0" y1="300" x2="1600" y2="300" stroke="#FFFFFF" stroke-opacity="0.05"></line><line x1="0" y1="400" x2="1600" y2="400" stroke="#FFFFFF" stroke-opacity="0.05"></line><line x1="0" y1="500" x2="1600" y2="500" stroke="#FFFFFF" stroke-opacity="0.05"></line><line x1="0" y1="600" x2="1600" y2="600" stroke="#FFFFFF" stroke-opacity="0.05"></line><line x1="0" y1="700" x2="1600" y2="700" stroke="#FFFFFF" stroke-opacity="0.05"></line><line x1="0" y1="800" x2="1600" y2="800" stroke="#FFFFFF" stroke-opacity="0.05"></line><rect x="80" y="110" width="240" height="220" fill="none" stroke="#FFFFFF" stroke-opacity="0.15"></rect><text x="200" y="368" fill="#00FF66" font-size="15" letter-spacing="6" text-anchor="middle" font-family="&#39;IBM Plex Mono&#39;,Menlo,Consolas,monospace">CAMPO</text><rect x="380" y="110" width="240" height="220" fill="none" stroke="#FFFFFF" stroke-opacity="0.15"></rect><text x="500" y="368" fill="#00FF66" font-size="15" letter-spacing="6" text-anchor="middle" font-family="&#39;IBM Plex Mono&#39;,Menlo,Consolas,monospace">VACUIDAD</text><rect x="680" y="110" width="240" height="220" fill="none" stroke="#FFFFFF" stroke-opacity="0.15"></rect><text x="800" y="368" fill="#00FF66" font-size="15" letter-spacing="6" text-anchor="middle" font-family="&#39;IBM Plex Mono&#39;,Menlo,Consolas,monospace">NÚMERO</text><rect x="980" y="110" width="240" height="220" fill="none" stroke="#FFFFFF" stroke-opacity="0.15"></rect><text x="1100" y="368" fill="#00FF66" font-size="15" letter-spacing="6" text-anchor="middle" font-family="&#39;IBM Plex Mono&#39;,Menlo,Consolas,monospace">SONIDO</text><rect x="1280" y="110" width="240" height="220" fill="none" stroke="#FFFFFF" stroke-opacity="0.15"></rect><text x="1400" y="368" fill="#00FF66" font-size="15" letter-spacing="6" text-anchor="middle" font-family="&#39;IBM Plex Mono&#39;,Menlo,Consolas,monospace">MENTE</text><polyline points="100,174.7 105,175.4 110,175.9 115,176.0 120,175.8 125,175.3 130,174.6 135,173.6 140,172.4 145,171.1 150,169.8 155,168.4 160,167.2 165,166.0 170,165.1 175,164.5 180,164.1 185,164.0 190,164.2 195,164.8 200,165.6 205,166.6 210,167.8 215,169.1 220,170.5 225,171.8 230,173.1 235,174.1 240,175.0 245,175.6 250,176.0 255,176.0 260,175.7 265,175.1 270,174.3 275,173.2 280,172.0 285,170.6 290,169.3 295,168.0 300,166.7 " fill="none" stroke="#FFFFFF" stroke-width="1.2" stroke-opacity="0.3"></polyline><polyline points="100,225.7 105,225.1 110,224.2 115,223.1 120,221.9 125,220.6 130,219.2 135,217.9 140,216.7 145,215.6 150,214.8 155,214.3 160,214.0 165,214.1 170,214.4 175,215.1 180,216.0 185,217.1 190,218.3 195,219.7 200,221.0 205,222.3 210,223.5 215,224.5 220,225.3 225,225.8 230,226.0 235,225.9 240,225.5 245,224.8 250,223.9 255,222.7 260,221.4 265,220.1 270,218.7 275,217.5 280,216.3 285,215.3 290,214.6 295,214.1 300,214.0 " fill="none" stroke="#FFFFFF" stroke-width="1.2" stroke-opacity="0.3"></polyline><polyline points="100,271.4 105,270.0 110,268.7 115,267.4 120,266.2 125,265.3 130,264.6 135,264.1 140,264.0 145,264.2 150,264.6 155,265.4 160,266.4 165,267.6 170,268.9 175,270.2 180,271.6 185,272.8 190,273.9 195,274.9 200,275.5 205,275.9 210,276.0 215,275.8 220,275.2 225,274.4 230,273.4 235,272.2 240,270.9 245,269.5 250,268.2 255,267.0 260,265.9 265,265.0 270,264.4 275,264.1 280,264.0 285,264.3 290,264.9 295,265.7 300,266.8 " fill="none" stroke="#FFFFFF" stroke-width="1.2" stroke-opacity="0.3"></polyline><polyline points="150,219.2 152,219.7 154,220.5 156,221.8 158,223.2 160,224.6 162,225.4 164,225.3 166,224.0 168,221.1 170,216.9 172,211.9 174,207.1 176,203.5 178,202.3 180,204.4 182,210.0 184,218.6 186,228.9 188,239.2 190,247.3 192,251.4 194,250.3 196,243.9 198,233.2 200,220.0 202,206.8 204,196.1 206,189.7 208,188.6 210,192.7 212,200.8 214,211.1 216,221.4 218,230.0 220,235.6 222,237.7 224,236.5 226,232.9 228,228.1 230,223.1 232,218.9 234,216.0 236,214.7 238,214.6 240,215.4 242,216.8 244,218.2 246,219.5 248,220.3 250,220.8 " fill="none" stroke="#00FF00" stroke-width="1.8" stroke-opacity="1"></polyline><line x1="564" y1="215" x2="545" y2="260" stroke="#FFFFFF" stroke-opacity="0.12" stroke-width="1"></line><line x1="564" y1="215" x2="500" y2="279" stroke="#FFFFFF" stroke-opacity="0.12" stroke-width="1"></line><line x1="564" y1="215" x2="455" y2="260" stroke="#FFFFFF" stroke-opacity="0.12" stroke-width="1"></line><line x1="564" y1="215" x2="436" y2="215" stroke="#FFFFFF" stroke-opacity="0.12" stroke-width="1"></line><line x1="564" y1="215" x2="455" y2="170" stroke="#FFFFFF" stroke-opacity="0.12" stroke-width="1"></line><line x1="564" y1="215" x2="500" y2="151" stroke="#FFFFFF" stroke-opacity="0.12" stroke-width="1"></line><line x1="564" y1="215" x2="545" y2="170" stroke="#FFFFFF" stroke-opacity="0.12" stroke-width="1"></line><line x1="545" y1="260" x2="500" y2="279" stroke="#FFFFFF" stroke-opacity="0.12" stroke-width="1"></line><line x1="545" y1="260" x2="455" y2="260" stroke="#FFFFFF" stroke-opacity="0.12" stroke-width="1"></line><line x1="545" y1="260" x2="436" y2="215" stroke="#FFFFFF" stroke-opacity="0.12" stroke-width="1"></line><line x1="545" y1="260" x2="455" y2="170" stroke="#FFFFFF" stroke-opacity="0.12" stroke-width="1"></line><line x1="545" y1="260" x2="500" y2="151" stroke="#FFFFFF" stroke-opacity="0.12" stroke-width="1"></line><line x1="545" y1="260" x2="545" y2="170" stroke="#FFFFFF" stroke-opacity="0.12" stroke-width="1"></line><line x1="500" y1="279" x2="455" y2="260" stroke="#FFFFFF" stroke-opacity="0.12" stroke-width="1"></line><line x1="500" y1="279" x2="436" y2="215" stroke="#FFFFFF" stroke-opacity="0.12" stroke-width="1"></line><line x1="500" y1="279" x2="455" y2="170" stroke="#FFFFFF" stroke-opacity="0.12" stroke-width="1"></line><line x1="500" y1="279" x2="500" y2="151" stroke="#FFFFFF" stroke-opacity="0.12" stroke-width="1"></line><line x1="500" y1="279" x2="545" y2="170" stroke="#FFFFFF" stroke-opacity="0.12" stroke-width="1"></line><line x1="455" y1="260" x2="436" y2="215" stroke="#FFFFFF" stroke-opacity="0.12" stroke-width="1"></line><line x1="455" y1="260" x2="455" y2="170" stroke="#FFFFFF" stroke-opacity="0.12" stroke-width="1"></line><line x1="455" y1="260" x2="500" y2="151" stroke="#FFFFFF" stroke-opacity="0.12" stroke-width="1"></line><line x1="455" y1="260" x2="545" y2="170" stroke="#FFFFFF" stroke-opacity="0.12" stroke-width="1"></line><line x1="436" y1="215" x2="455" y2="170" stroke="#FFFFFF" stroke-opacity="0.12" stroke-width="1"></line><line x1="436" y1="215" x2="500" y2="151" stroke="#FFFFFF" stroke-opacity="0.12" stroke-width="1"></line><line x1="436" y1="215" x2="545" y2="170" stroke="#FFFFFF" stroke-opacity="0.12" stroke-width="1"></line><line x1="455" y1="170" x2="500" y2="151" stroke="#FFFFFF" stroke-opacity="0.12" stroke-width="1"></line><line x1="455" y1="170" x2="545" y2="170" stroke="#FFFFFF" stroke-opacity="0.12" stroke-width="1"></line><line x1="500" y1="151" x2="545" y2="170" stroke="#FFFFFF" stroke-opacity="0.12" stroke-width="1"></line><circle cx="564" cy="215" r="3" fill="#FFFFFF" fill-opacity="0.85"></circle><circle cx="545" cy="260" r="3" fill="#FFFFFF" fill-opacity="0.85"></circle><circle cx="500" cy="279" r="3" fill="#FFFFFF" fill-opacity="0.85"></circle><circle cx="455" cy="260" r="3" fill="#FFFFFF" fill-opacity="0.85"></circle><circle cx="436" cy="215" r="3" fill="#FFFFFF" fill-opacity="0.85"></circle><circle cx="455" cy="170" r="3" fill="#FFFFFF" fill-opacity="0.85"></circle><circle cx="500" cy="151" r="3" fill="#FFFFFF" fill-opacity="0.85"></circle><circle cx="545" cy="170" r="3" fill="#FFFFFF" fill-opacity="0.85"></circle><circle cx="500" cy="215" r="18" fill="none" stroke="#00FF00" stroke-width="1.5" stroke-dasharray="4 5"></circle><rect x="725" y="140" width="150" height="150" fill="none" stroke="#FFFFFF" stroke-opacity="0.6" stroke-width="1.4"></rect><rect x="751" y="166" width="98" height="98" fill="none" stroke="#FFFFFF" stroke-opacity="0.53" stroke-width="1.4"></rect><rect x="772" y="187" width="56" height="56" fill="none" stroke="#FFFFFF" stroke-opacity="0.45999999999999996" stroke-width="1.4"></rect><rect x="789" y="204" width="22" height="22" fill="none" stroke="#00FF00" stroke-opacity="1" stroke-width="1.4"></rect><rect x="1033" y="180" width="4" height="115" fill="#FFFFFF" fill-opacity="0.85"></rect><rect x="1063" y="237.5" width="4" height="57.5" fill="#FFFFFF" fill-opacity="0.85"></rect><rect x="1093" y="256.6666666666667" width="4" height="38.333333333333336" fill="#FFFFFF" fill-opacity="0.85"></rect><rect x="1123" y="266.25" width="4" height="28.75" fill="#FFFFFF" fill-opacity="0.85"></rect><rect x="1153" y="272" width="4" height="23" fill="#FFFFFF" fill-opacity="0.85"></rect><rect x="1183" y="275.8333333333333" width="4" height="19.166666666666668" fill="#FFFFFF" fill-opacity="0.85"></rect><polyline points="1035,174 1065,231.5 1095,250.66666666666669 1125,260.25 1155,266 1185,269.8333333333333 " fill="none" stroke="#00FF00" stroke-width="1.6" stroke-opacity="1"></polyline><line x1="1492" y1="222" x2="1474" y2="250" stroke="#FFFFFF" stroke-opacity="0.25" stroke-width="1"></line><line x1="1492" y1="222" x2="1352" y2="265" stroke="#FFFFFF" stroke-opacity="0.1" stroke-width="1"></line><line x1="1474" y1="250" x2="1432" y2="276" stroke="#FFFFFF" stroke-opacity="0.25" stroke-width="1"></line><line x1="1474" y1="250" x2="1329" y2="223" stroke="#FFFFFF" stroke-opacity="0.1" stroke-width="1"></line><line x1="1432" y1="276" x2="1352" y2="265" stroke="#FFFFFF" stroke-opacity="0.25" stroke-width="1"></line><line x1="1432" y1="276" x2="1319" y2="182" stroke="#FFFFFF" stroke-opacity="0.1" stroke-width="1"></line><line x1="1352" y1="265" x2="1329" y2="223" stroke="#FFFFFF" stroke-opacity="0.25" stroke-width="1"></line><line x1="1352" y1="265" x2="1373" y2="171" stroke="#FFFFFF" stroke-opacity="0.1" stroke-width="1"></line><line x1="1329" y1="223" x2="1319" y2="182" stroke="#FFFFFF" stroke-opacity="0.25" stroke-width="1"></line><line x1="1329" y1="223" x2="1412" y2="159" stroke="#FFFFFF" stroke-opacity="0.1" stroke-width="1"></line><line x1="1319" y1="182" x2="1373" y2="171" stroke="#FFFFFF" stroke-opacity="0.25" stroke-width="1"></line><line x1="1319" y1="182" x2="1465" y2="188" stroke="#FFFFFF" stroke-opacity="0.1" stroke-width="1"></line><line x1="1373" y1="171" x2="1412" y2="159" stroke="#FFFFFF" stroke-opacity="0.25" stroke-width="1"></line><line x1="1373" y1="171" x2="1492" y2="222" stroke="#FFFFFF" stroke-opacity="0.1" stroke-width="1"></line><line x1="1412" y1="159" x2="1465" y2="188" stroke="#FFFFFF" stroke-opacity="0.25" stroke-width="1"></line><line x1="1412" y1="159" x2="1474" y2="250" stroke="#FFFFFF" stroke-opacity="0.1" stroke-width="1"></line><line x1="1465" y1="188" x2="1492" y2="222" stroke="#FFFFFF" stroke-opacity="0.25" stroke-width="1"></line><line x1="1465" y1="188" x2="1432" y2="276" stroke="#FFFFFF" stroke-opacity="0.1" stroke-width="1"></line><circle cx="1492" cy="222" r="3" fill="#FFFFFF" fill-opacity="0.9"></circle><circle cx="1474" cy="250" r="3" fill="#FFFFFF" fill-opacity="0.9"></circle><circle cx="1432" cy="276" r="3" fill="#FFFFFF" fill-opacity="0.9"></circle><circle cx="1352" cy="265" r="3" fill="#FFFFFF" fill-opacity="0.9"></circle><circle cx="1329" cy="223" r="3" fill="#FFFFFF" fill-opacity="0.9"></circle><circle cx="1319" cy="182" r="3" fill="#FFFFFF" fill-opacity="0.9"></circle><circle cx="1373" cy="171" r="3" fill="#FFFFFF" fill-opacity="0.9"></circle><circle cx="1412" cy="159" r="3" fill="#FFFFFF" fill-opacity="0.9"></circle><circle cx="1465" cy="188" r="3" fill="#FFFFFF" fill-opacity="0.9"></circle><circle cx="1400" cy="215" r="20" fill="none" stroke="#00FF00" stroke-width="1.4" stroke-dasharray="4 5"></circle><line x1="200" y1="382" x2="689" y2="543" stroke="#00FF66" stroke-opacity="0.45" stroke-width="1.3" stroke-dasharray="2 9"></line><line x1="500" y1="382" x2="702" y2="516" stroke="#00FF66" stroke-opacity="0.45" stroke-width="1.3" stroke-dasharray="2 9"></line><line x1="800" y1="382" x2="800" y2="463" stroke="#00FF66" stroke-opacity="0.45" stroke-width="1.3" stroke-dasharray="2 9"></line><line x1="1100" y1="382" x2="898" y2="516" stroke="#00FF66" stroke-opacity="0.45" stroke-width="1.3" stroke-dasharray="2 9"></line><line x1="1400" y1="382" x2="911" y2="543" stroke="#00FF66" stroke-opacity="0.45" stroke-width="1.3" stroke-dasharray="2 9"></line><line x1="882" y1="536" x2="882" y2="624" stroke="#00FF00" stroke-opacity="0.85" stroke-width="1.6"></line><line x1="882" y1="624" x2="800" y2="667" stroke="#00FF00" stroke-opacity="0.85" stroke-width="1.6"></line><line x1="800" y1="667" x2="718" y2="624" stroke="#00FF00" stroke-opacity="0.85" stroke-width="1.6"></line><line x1="718" y1="624" x2="718" y2="536" stroke="#00FF00" stroke-opacity="0.85" stroke-width="1.6"></line><line x1="718" y1="536" x2="800" y2="493" stroke="#00FF00" stroke-opacity="0.85" stroke-width="1.6"></line><line x1="800" y1="493" x2="882" y2="536" stroke="#00FF00" stroke-opacity="0.85" stroke-width="1.6"></line><line x1="882" y1="536" x2="718" y2="624" stroke="#00FF00" stroke-opacity="0.35" stroke-width="1.3"></line><line x1="882" y1="624" x2="718" y2="536" stroke="#00FF00" stroke-opacity="0.35" stroke-width="1.3"></line><line x1="800" y1="667" x2="800" y2="493" stroke="#00FF00" stroke-opacity="0.35" stroke-width="1.3"></line><circle cx="882" cy="536" r="5.5" fill="#00FF00"></circle><circle cx="882" cy="624" r="5.5" fill="#00FF00"></circle><circle cx="800" cy="667" r="5.5" fill="#00FF00"></circle><circle cx="718" cy="624" r="5.5" fill="#00FF00"></circle><circle cx="718" cy="536" r="5.5" fill="#00FF00"></circle><circle cx="800" cy="493" r="5.5" fill="#00FF00"></circle><text x="800" y="722" fill="#FFFFFF" fill-opacity="0.55" font-size="14" letter-spacing="6" text-anchor="middle" font-family="&#39;IBM Plex Mono&#39;,Menlo,Consolas,monospace">LA MISMA ESTRUCTURA</text><text x="80" y="812" fill="#FFFFFF" font-size="116" font-weight="700" letter-spacing="-4">Isomorfismo</text><text x="84" y="858" fill="#00FF66" font-size="21" letter-spacing="12">CINCO EXCAVACIONES · UN LECHO DE ROCA</text></svg>