<svg width="1600" height="900" viewBox="0 0 1600 900" fill="none" xmlns="http://www.w3.org/2000/svg">
  <rect width="1600" height="900" fill="#040404"/>
  <g opacity="0.8" stroke="#F0F0F0" stroke-width="1.4">
    <path d="M120 450C360 150 1240 140 1480 450"/>
    <path d="M120 450C360 750 1240 760 1480 450"/>
    <path d="M220 450C420 220 1180 210 1380 450"/>
    <path d="M220 450C420 680 1180 690 1380 450"/>
    <path d="M320 450C500 280 1100 280 1280 450"/>
    <path d="M320 450C500 620 1100 620 1280 450"/>
  </g>
  <g fill="#FFFFFF" fill-opacity="0.9">
    <circle cx="800" cy="450" r="10"/>
    <circle cx="920" cy="390" r="4"/>
    <circle cx="690" cy="540" r="3"/>
    <circle cx="1090" cy="470" r="5"/>
    <circle cx="530" cy="410" r="4"/>
    <circle cx="1220" cy="540" r="3"/>
    <circle cx="410" cy="520" r="3"/>
    <circle cx="1400" cy="410" r="2.5"/>
    <circle cx="180" cy="370" r="2.5"/>
  </g>
  <g opacity="0.3" stroke="#DADADA" stroke-width="1">
    <line x1="0" y1="450.5" x2="1600" y2="450.5"/>
    <line x1="800.5" y1="0" x2="800.5" y2="900"/>
  </g>
</svg>
