<svg xmlns="http://www.w3.org/2000/svg" width="1600" height="900" viewBox="0 0 1600 900" font-family="Helvetica, Arial, sans-serif"><rect width="1600" height="900" fill="#000000"></rect><line x1="100" y1="0" x2="100" y2="900" stroke="#FFFFFF" stroke-opacity="0.05"></line><line x1="200" y1="0" x2="200" y2="900" stroke="#FFFFFF" stroke-opacity="0.05"></line><line x1="300" y1="0" x2="300" y2="900" stroke="#FFFFFF" stroke-opacity="0.05"></line><line x1="400" y1="0" x2="400" y2="900" stroke="#FFFFFF" stroke-opacity="0.05"></line><line x1="500" y1="0" x2="500" y2="900" stroke="#FFFFFF" stroke-opacity="0.05"></line><line x1="600" y1="0" x2="600" y2="900" stroke="#FFFFFF" stroke-opacity="0.05"></line><line x1="700" y1="0" x2="700" y2="900" stroke="#FFFFFF" stroke-opacity="0.05"></line><line x1="800" y1="0" x2="800" y2="900" stroke="#FFFFFF" stroke-opacity="0.05"></line><line x1="900" y1="0" x2="900" y2="900" stroke="#FFFFFF" stroke-opacity="0.05"></line><line x1="1000" y1="0" x2="1000" y2="900" stroke="#FFFFFF" stroke-opacity="0.05"></line><line x1="1100" y1="0" x2="1100" y2="900" stroke="#FFFFFF" stroke-opacity="0.05"></line><line x1="1200" y1="0" x2="1200" y2="900" stroke="#FFFFFF" stroke-opacity="0.05"></line><line x1="1300" y1="0" x2="1300" y2="900" stroke="#FFFFFF" stroke-opacity="0.05"></line><line x1="1400" y1="0" x2="1400" y2="900" stroke="#FFFFFF" stroke-opacity="0.05"></line><line x1="1500" y1="0" x2="1500" y2="900" stroke="#FFFFFF" stroke-opacity="0.05"></line><line x1="0" y1="100" x2="1600" y2="100" stroke="#FFFFFF" stroke-opacity="0.05"></line><line x1="0" y1="200" x2="1600" y2="200" stroke="#FFFFFF" stroke-opacity="0.05"></line><line x1="0" y1="300" x2="1600" y2="300" stroke="#FFFFFF" stroke-opacity="0.05"></line><line x1="0" y1="400" x2="1600" y2="400" stroke="#FFFFFF" stroke-opacity="0.05"></line><line x1="0" y1="500" x2="1600" y2="500" stroke="#FFFFFF" stroke-opacity="0.05"></line><line x1="0" y1="600" x2="1600" y2="600" stroke="#FFFFFF" stroke-opacity="0.05"></line><line x1="0" y1="700" x2="1600" y2="700" stroke="#FFFFFF" stroke-opacity="0.05"></line><line x1="0" y1="800" x2="1600" y2="800" stroke="#FFFFFF" stroke-opacity="0.05"></line><polyline points="100,239.9 110,240.0 120,239.9 130,239.6 140,239.1 150,238.4 160,237.6 170,236.5 180,235.4 190,234.1 200,232.8 210,231.4 220,230.0 230,228.6 240,227.2 250,225.8 260,224.6 270,223.4 280,222.4 290,221.6 300,220.9 310,220.4 320,220.1 330,220.0 340,220.1 350,220.4 360,220.9 370,221.6 380,222.5 390,223.5 400,224.6 410,225.9 420,227.2 430,228.6 440,230.0 450,231.4 460,232.8 470,234.2 480,235.4 490,236.6 500,237.6 510,238.4 520,239.1 530,239.6 540,239.9 550,240.0 560,239.9 570,239.6 580,239.1 590,238.4 600,237.5 610,236.5 620,235.4 630,234.1 640,232.8 650,231.4 660,230.0 670,228.5 680,227.1 690,225.8 700,224.6 710,223.4 720,222.4 730,221.6 740,220.9 750,220.4 760,220.1 770,220.0 780,220.1 790,220.4 800,220.9 810,221.6 820,222.5 830,223.5 840,224.6 850,225.9 860,227.2 870,228.6 880,230.1 890,231.5 900,232.9 910,234.2 920,235.5 930,236.6 940,237.6 950,238.4 960,239.1 970,239.6 980,239.9 990,240.0 1000,239.9 1010,239.6 1020,239.1 1030,238.4 1040,237.5 1050,236.5 1060,235.4 1070,234.1 1080,232.8 1090,231.4 1100,229.9 1110,228.5 1120,227.1 1130,225.8 1140,224.5 1150,223.4 1160,222.4 1170,221.6 1180,220.9 1190,220.4 1200,220.1 1210,220.0 1220,220.1 1230,220.4 1240,220.9 1250,221.6 1260,222.5 1270,223.5 1280,224.7 1290,225.9 1300,227.3 1310,228.7 1320,230.1 1330,231.5 1340,232.9 1350,234.2 1360,235.5 1370,236.6 1380,237.6 1390,238.5 1400,239.1 1410,239.6 1420,239.9 1430,240.0 1440,239.9 1450,239.6 1460,239.1 1470,238.4 1480,237.5 1490,236.5 1500,235.3 " fill="none" stroke="#FFFFFF" stroke-width="1.4" stroke-opacity="0.16"></polyline><polyline points="100,304.0 110,302.7 120,301.3 130,299.8 140,298.4 150,297.0 160,295.7 170,294.5 180,293.3 190,292.3 200,291.5 210,290.8 220,290.4 230,290.1 240,290.0 250,290.1 260,290.5 270,291.0 280,291.7 290,292.6 300,293.6 310,294.7 320,296.0 330,297.3 340,298.7 350,300.2 360,301.6 370,303.0 380,304.3 390,305.5 400,306.7 410,307.7 420,308.5 430,309.2 440,309.6 450,309.9 460,310.0 470,309.9 480,309.5 490,309.0 500,308.3 510,307.4 520,306.4 530,305.3 540,304.0 550,302.6 560,301.2 570,299.8 580,298.4 590,297.0 600,295.7 610,294.4 620,293.3 630,292.3 640,291.5 650,290.8 660,290.4 670,290.1 680,290.0 690,290.1 700,290.5 710,291.0 720,291.7 730,292.6 740,293.6 750,294.8 760,296.0 770,297.4 780,298.8 790,300.2 800,301.6 810,303.0 820,304.3 830,305.6 840,306.7 850,307.7 860,308.5 870,309.2 880,309.6 890,309.9 900,310.0 910,309.9 920,309.5 930,309.0 940,308.3 950,307.4 960,306.4 970,305.2 980,304.0 990,302.6 1000,301.2 1010,299.8 1020,298.4 1030,297.0 1040,295.7 1050,294.4 1060,293.3 1070,292.3 1080,291.5 1090,290.8 1100,290.3 1110,290.1 1120,290.0 1130,290.1 1140,290.5 1150,291.0 1160,291.7 1170,292.6 1180,293.6 1190,294.8 1200,296.0 1210,297.4 1220,298.8 1230,300.2 1240,301.6 1250,303.0 1260,304.4 1270,305.6 1280,306.7 1290,307.7 1300,308.5 1310,309.2 1320,309.7 1330,309.9 1340,310.0 1350,309.9 1360,309.5 1370,309.0 1380,308.3 1390,307.4 1400,306.4 1410,305.2 1420,303.9 1430,302.6 1440,301.2 1450,299.8 1460,298.3 1470,297.0 1480,295.6 1490,294.4 1500,293.3 " fill="none" stroke="#FFFFFF" stroke-width="1.4" stroke-opacity="0.16"></polyline><polyline points="100,362.2 110,361.4 120,360.8 130,360.3 140,360.1 150,360.0 160,360.1 170,360.5 180,361.0 190,361.8 200,362.6 210,363.7 220,364.9 230,366.1 240,367.5 250,368.9 260,370.3 270,371.7 280,373.1 290,374.4 300,375.7 310,376.8 320,377.8 330,378.6 340,379.2 350,379.7 360,379.9 370,380.0 380,379.8 390,379.5 400,379.0 410,378.2 420,377.3 430,376.3 440,375.1 450,373.9 460,372.5 470,371.1 480,369.7 490,368.3 500,366.9 510,365.6 520,364.3 530,363.2 540,362.2 550,361.4 560,360.8 570,360.3 580,360.1 590,360.0 600,360.2 610,360.5 620,361.0 630,361.8 640,362.7 650,363.7 660,364.9 670,366.2 680,367.5 690,368.9 700,370.3 710,371.8 720,373.1 730,374.5 740,375.7 750,376.8 760,377.8 770,378.6 780,379.2 790,379.7 800,379.9 810,380.0 820,379.8 830,379.5 840,378.9 850,378.2 860,377.3 870,376.3 880,375.1 890,373.8 900,372.5 910,371.1 920,369.7 930,368.2 940,366.8 950,365.5 960,364.3 970,363.2 980,362.2 990,361.4 1000,360.8 1010,360.3 1020,360.1 1030,360.0 1040,360.2 1050,360.5 1060,361.1 1070,361.8 1080,362.7 1090,363.7 1100,364.9 1110,366.2 1120,367.5 1130,368.9 1140,370.4 1150,371.8 1160,373.2 1170,374.5 1180,375.7 1190,376.8 1200,377.8 1210,378.6 1220,379.2 1230,379.7 1240,379.9 1250,380.0 1260,379.8 1270,379.5 1280,378.9 1290,378.2 1300,377.3 1310,376.3 1320,375.1 1330,373.8 1340,372.5 1350,371.1 1360,369.6 1370,368.2 1380,366.8 1390,365.5 1400,364.3 1410,363.2 1420,362.2 1430,361.4 1440,360.8 1450,360.3 1460,360.1 1470,360.0 1480,360.2 1490,360.5 1500,361.1 " fill="none" stroke="#FFFFFF" stroke-width="1.4" stroke-opacity="0.3"></polyline><polyline points="100,431.8 110,432.7 120,433.8 130,435.0 140,436.3 150,437.6 160,439.0 170,440.5 180,441.9 190,443.3 200,444.6 210,445.8 220,446.9 230,447.8 240,448.7 250,449.3 260,449.7 270,450.0 280,450.0 290,449.8 300,449.5 310,448.9 320,448.2 330,447.2 340,446.2 350,445.0 360,443.7 370,442.4 380,441.0 390,439.5 400,438.1 410,436.7 420,435.4 430,434.2 440,433.1 450,432.1 460,431.3 470,430.7 480,430.3 490,430.0 500,430.0 510,430.2 520,430.5 530,431.1 540,431.9 550,432.8 560,433.8 570,435.0 580,436.3 590,437.6 600,439.1 610,440.5 620,441.9 630,443.3 640,444.6 650,445.8 660,446.9 670,447.9 680,448.7 690,449.3 700,449.7 710,450.0 720,450.0 730,449.8 740,449.4 750,448.9 760,448.1 770,447.2 780,446.2 790,445.0 800,443.7 810,442.3 820,440.9 830,439.5 840,438.1 850,436.7 860,435.4 870,434.2 880,433.1 890,432.1 900,431.3 910,430.7 920,430.3 930,430.0 940,430.0 950,430.2 960,430.6 970,431.1 980,431.9 990,432.8 1000,433.8 1010,435.0 1020,436.3 1030,437.7 1040,439.1 1050,440.5 1060,441.9 1070,443.3 1080,444.6 1090,445.8 1100,446.9 1110,447.9 1120,448.7 1130,449.3 1140,449.7 1150,450.0 1160,450.0 1170,449.8 1180,449.4 1190,448.9 1200,448.1 1210,447.2 1220,446.2 1230,445.0 1240,443.7 1250,442.3 1260,440.9 1270,439.5 1280,438.1 1290,436.7 1300,435.4 1310,434.2 1320,433.1 1330,432.1 1340,431.3 1350,430.7 1360,430.3 1370,430.0 1380,430.0 1390,430.2 1400,430.6 1410,431.1 1420,431.9 1430,432.8 1440,433.9 1450,435.0 1460,436.3 1470,437.7 1480,439.1 1490,440.5 1500,441.9 " fill="none" stroke="#FFFFFF" stroke-width="1.4" stroke-opacity="0.16"></polyline><polyline points="100,513.4 110,514.7 120,515.9 130,517.0 140,517.9 150,518.7 160,519.3 170,519.7 180,520.0 190,520.0 200,519.8 210,519.4 220,518.8 230,518.1 240,517.1 250,516.1 260,514.9 270,513.6 280,512.2 290,510.8 300,509.4 310,508.0 320,506.6 330,505.3 340,504.1 350,503.0 360,502.1 370,501.3 380,500.7 390,500.3 400,500.0 410,500.0 420,500.2 430,500.6 440,501.2 450,501.9 460,502.9 470,503.9 480,505.1 490,506.4 500,507.8 510,509.2 520,510.6 530,512.0 540,513.4 550,514.7 560,515.9 570,517.0 580,518.0 590,518.7 600,519.3 610,519.8 620,520.0 630,520.0 640,519.8 650,519.4 660,518.8 670,518.1 680,517.1 690,516.1 700,514.9 710,513.6 720,512.2 730,510.8 740,509.4 750,508.0 760,506.6 770,505.3 780,504.1 790,503.0 800,502.0 810,501.3 820,500.7 830,500.2 840,500.0 850,500.0 860,500.2 870,500.6 880,501.2 890,502.0 900,502.9 910,504.0 920,505.1 930,506.4 940,507.8 950,509.2 960,510.6 970,512.1 980,513.4 990,514.7 1000,515.9 1010,517.0 1020,518.0 1030,518.7 1040,519.3 1050,519.8 1060,520.0 1070,520.0 1080,519.8 1090,519.4 1100,518.8 1110,518.0 1120,517.1 1130,516.0 1140,514.8 1150,513.5 1160,512.2 1170,510.8 1180,509.3 1190,507.9 1200,506.6 1210,505.3 1220,504.0 1230,503.0 1240,502.0 1250,501.2 1260,500.6 1270,500.2 1280,500.0 1290,500.0 1300,500.2 1310,500.6 1320,501.2 1330,502.0 1340,502.9 1350,504.0 1360,505.2 1370,506.5 1380,507.8 1390,509.2 1400,510.7 1410,512.1 1420,513.5 1430,514.8 1440,516.0 1450,517.0 1460,518.0 1470,518.8 1480,519.4 1490,519.8 1500,520.0 " fill="none" stroke="#FFFFFF" stroke-width="1.4" stroke-opacity="0.16"></polyline><polyline points="100,590.0 110,589.8 120,589.4 130,588.8 140,588.0 150,587.0 160,586.0 170,584.8 180,583.5 190,582.1 200,580.7 210,579.2 220,577.8 230,576.5 240,575.2 250,574.0 260,572.9 270,572.0 280,571.2 290,570.6 300,570.2 310,570.0 320,570.0 330,570.2 340,570.6 350,571.2 360,572.0 370,573.0 380,574.0 390,575.3 400,576.6 410,577.9 420,579.3 430,580.8 440,582.2 450,583.5 460,584.8 470,586.0 480,587.1 490,588.0 500,588.8 510,589.4 520,589.8 530,590.0 540,590.0 550,589.8 560,589.3 570,588.7 580,588.0 590,587.0 600,585.9 610,584.7 620,583.4 630,582.1 640,580.7 650,579.2 660,577.8 670,576.4 680,575.2 690,574.0 700,572.9 710,572.0 720,571.2 730,570.6 740,570.2 750,570.0 760,570.0 770,570.2 780,570.7 790,571.3 800,572.0 810,573.0 820,574.1 830,575.3 840,576.6 850,577.9 860,579.4 870,580.8 880,582.2 890,583.6 900,584.9 910,586.1 920,587.1 930,588.1 940,588.8 950,589.4 960,589.8 970,590.0 980,590.0 990,589.8 1000,589.3 1010,588.7 1020,588.0 1030,587.0 1040,585.9 1050,584.7 1060,583.4 1070,582.0 1080,580.6 1090,579.2 1100,577.8 1110,576.4 1120,575.1 1130,573.9 1140,572.9 1150,571.9 1160,571.2 1170,570.6 1180,570.2 1190,570.0 1200,570.0 1210,570.2 1220,570.7 1230,571.3 1240,572.1 1250,573.0 1260,574.1 1270,575.3 1280,576.6 1290,578.0 1300,579.4 1310,580.8 1320,582.2 1330,583.6 1340,584.9 1350,586.1 1360,587.1 1370,588.1 1380,588.8 1390,589.4 1400,589.8 1410,590.0 1420,590.0 1430,589.7 1440,589.3 1450,588.7 1460,587.9 1470,587.0 1480,585.9 1490,584.7 1500,583.4 " fill="none" stroke="#FFFFFF" stroke-width="1.4" stroke-opacity="0.16"></polyline><line x1="810.3" y1="417.7" x2="821.2" y2="416.2" stroke="#FFFFFF" stroke-opacity="0.43" stroke-width="1.6"></line><line x1="917.1" y1="544.8" x2="928.1" y2="545.8" stroke="#FFFFFF" stroke-opacity="0.41" stroke-width="1.6"></line><line x1="223.4" y1="416.7" x2="234.3" y2="417.7" stroke="#FFFFFF" stroke-opacity="0.43" stroke-width="1.6"></line><line x1="727.0" y1="396.3" x2="737.9" y2="397.7" stroke="#FFFFFF" stroke-opacity="0.50" stroke-width="1.6"></line><line x1="685.7" y1="472.8" x2="696.7" y2="473.4" stroke="#FFFFFF" stroke-opacity="0.45" stroke-width="1.6"></line><line x1="333.3" y1="275.6" x2="344.2" y2="277.2" stroke="#FFFFFF" stroke-opacity="0.33" stroke-width="1.6"></line><line x1="653.0" y1="355.1" x2="663.9" y2="356.4" stroke="#FFFFFF" stroke-opacity="0.42" stroke-width="1.6"></line><line x1="287.9" y1="444.0" x2="298.9" y2="443.6" stroke="#FFFFFF" stroke-opacity="0.42" stroke-width="1.6"></line><line x1="683.6" y1="543.3" x2="694.5" y2="542.1" stroke="#FFFFFF" stroke-opacity="0.49" stroke-width="1.6"></line><line x1="1160.1" y1="331.6" x2="1171.1" y2="332.5" stroke="#FFFFFF" stroke-opacity="0.44" stroke-width="1.6"></line><line x1="456.8" y1="226.8" x2="467.7" y2="228.2" stroke="#FFFFFF" stroke-opacity="0.47" stroke-width="1.6"></line><line x1="1444.2" y1="324.5" x2="1455.1" y2="323.0" stroke="#FFFFFF" stroke-opacity="0.29" stroke-width="1.6"></line><line x1="1125.8" y1="343.1" x2="1136.7" y2="344.7" stroke="#FFFFFF" stroke-opacity="0.42" stroke-width="1.6"></line><line x1="898.8" y1="542.6" x2="909.7" y2="543.8" stroke="#FFFFFF" stroke-opacity="0.29" stroke-width="1.6"></line><line x1="1270.1" y1="533.2" x2="1281.1" y2="533.0" stroke="#FFFFFF" stroke-opacity="0.37" stroke-width="1.6"></line><line x1="149.1" y1="236.2" x2="160.0" y2="235.2" stroke="#FFFFFF" stroke-opacity="0.50" stroke-width="1.6"></line><line x1="790.8" y1="416.2" x2="801.7" y2="414.7" stroke="#FFFFFF" stroke-opacity="0.33" stroke-width="1.6"></line><line x1="797.2" y1="499.1" x2="808.2" y2="498.2" stroke="#FFFFFF" stroke-opacity="0.28" stroke-width="1.6"></line><line x1="990.5" y1="223.1" x2="1001.5" y2="223.0" stroke="#FFFFFF" stroke-opacity="0.38" stroke-width="1.6"></line><line x1="977.8" y1="598.8" x2="988.8" y2="598.6" stroke="#FFFFFF" stroke-opacity="0.38" stroke-width="1.6"></line><line x1="748.5" y1="345.6" x2="759.5" y2="346.7" stroke="#FFFFFF" stroke-opacity="0.26" stroke-width="1.6"></line><line x1="1112.0" y1="372.0" x2="1122.9" y2="373.5" stroke="#FFFFFF" stroke-opacity="0.48" stroke-width="1.6"></line><line x1="523.0" y1="426.6" x2="534.0" y2="427.3" stroke="#FFFFFF" stroke-opacity="0.35" stroke-width="1.6"></line><line x1="1260.2" y1="268.4" x2="1271.1" y2="269.7" stroke="#FFFFFF" stroke-opacity="0.29" stroke-width="1.6"></line><line x1="971.6" y1="454.0" x2="982.6" y2="454.9" stroke="#FFFFFF" stroke-opacity="0.29" stroke-width="1.6"></line><line x1="616.6" y1="355.7" x2="627.6" y2="356.4" stroke="#FFFFFF" stroke-opacity="0.53" stroke-width="1.6"></line><line x1="1274.5" y1="457.7" x2="1285.4" y2="456.2" stroke="#FFFFFF" stroke-opacity="0.37" stroke-width="1.6"></line><line x1="1364.0" y1="439.9" x2="1375.0" y2="439.8" stroke="#FFFFFF" stroke-opacity="0.38" stroke-width="1.6"></line><line x1="533.2" y1="410.4" x2="544.2" y2="411.2" stroke="#FFFFFF" stroke-opacity="0.25" stroke-width="1.6"></line><line x1="1312.3" y1="325.4" x2="1323.3" y2="325.9" stroke="#FFFFFF" stroke-opacity="0.37" stroke-width="1.6"></line><line x1="282.5" y1="237.3" x2="293.4" y2="236.5" stroke="#FFFFFF" stroke-opacity="0.47" stroke-width="1.6"></line><line x1="855.1" y1="411.3" x2="866.0" y2="409.9" stroke="#FFFFFF" stroke-opacity="0.28" stroke-width="1.6"></line><line x1="875.7" y1="454.4" x2="886.6" y2="453.3" stroke="#FFFFFF" stroke-opacity="0.52" stroke-width="1.6"></line><line x1="1422.0" y1="443.8" x2="1432.9" y2="444.8" stroke="#FFFFFF" stroke-opacity="0.43" stroke-width="1.6"></line><line x1="894.1" y1="400.6" x2="905.0" y2="399.1" stroke="#FFFFFF" stroke-opacity="0.28" stroke-width="1.6"></line><line x1="1000.9" y1="464.7" x2="1011.8" y2="466.0" stroke="#FFFFFF" stroke-opacity="0.55" stroke-width="1.6"></line><line x1="1080.9" y1="259.8" x2="1091.8" y2="258.3" stroke="#FFFFFF" stroke-opacity="0.29" stroke-width="1.6"></line><line x1="994.3" y1="594.1" x2="1005.3" y2="593.6" stroke="#FFFFFF" stroke-opacity="0.35" stroke-width="1.6"></line><line x1="1373.3" y1="356.4" x2="1384.2" y2="354.9" stroke="#FFFFFF" stroke-opacity="0.48" stroke-width="1.6"></line><line x1="1003.7" y1="233.7" x2="1014.7" y2="233.3" stroke="#FFFFFF" stroke-opacity="0.34" stroke-width="1.6"></line><line x1="1017.6" y1="402.0" x2="1028.6" y2="401.9" stroke="#FFFFFF" stroke-opacity="0.44" stroke-width="1.6"></line><line x1="420.8" y1="492.0" x2="431.8" y2="492.5" stroke="#FFFFFF" stroke-opacity="0.34" stroke-width="1.6"></line><line x1="239.6" y1="426.2" x2="250.6" y2="426.9" stroke="#FFFFFF" stroke-opacity="0.36" stroke-width="1.6"></line><line x1="360.8" y1="532.1" x2="371.7" y2="531.2" stroke="#FFFFFF" stroke-opacity="0.53" stroke-width="1.6"></line><line x1="1135.4" y1="207.7" x2="1146.3" y2="206.4" stroke="#FFFFFF" stroke-opacity="0.38" stroke-width="1.6"></line><line x1="1271.1" y1="433.5" x2="1282.0" y2="431.9" stroke="#FFFFFF" stroke-opacity="0.46" stroke-width="1.6"></line><line x1="969.5" y1="205.2" x2="980.5" y2="205.5" stroke="#FFFFFF" stroke-opacity="0.40" stroke-width="1.6"></line><line x1="782.6" y1="269.5" x2="793.5" y2="271.0" stroke="#FFFFFF" stroke-opacity="0.49" stroke-width="1.6"></line><line x1="201.2" y1="239.7" x2="212.1" y2="238.1" stroke="#FFFFFF" stroke-opacity="0.55" stroke-width="1.6"></line><line x1="948.0" y1="485.8" x2="958.9" y2="487.4" stroke="#FFFFFF" stroke-opacity="0.50" stroke-width="1.6"></line><line x1="1363.9" y1="597.5" x2="1374.8" y2="598.4" stroke="#FFFFFF" stroke-opacity="0.27" stroke-width="1.6"></line><line x1="343.6" y1="444.1" x2="354.5" y2="442.8" stroke="#FFFFFF" stroke-opacity="0.37" stroke-width="1.6"></line><line x1="682.1" y1="417.9" x2="693.1" y2="418.5" stroke="#FFFFFF" stroke-opacity="0.27" stroke-width="1.6"></line><line x1="197.4" y1="389.5" x2="208.3" y2="390.6" stroke="#FFFFFF" stroke-opacity="0.33" stroke-width="1.6"></line><line x1="682.0" y1="496.0" x2="692.9" y2="494.8" stroke="#FFFFFF" stroke-opacity="0.37" stroke-width="1.6"></line><line x1="574.4" y1="439.8" x2="585.3" y2="441.2" stroke="#FFFFFF" stroke-opacity="0.36" stroke-width="1.6"></line><line x1="1441.0" y1="324.5" x2="1451.9" y2="323.0" stroke="#FFFFFF" stroke-opacity="0.38" stroke-width="1.6"></line><line x1="448.0" y1="478.1" x2="458.9" y2="479.1" stroke="#FFFFFF" stroke-opacity="0.35" stroke-width="1.6"></line><line x1="879.5" y1="462.9" x2="890.4" y2="461.9" stroke="#FFFFFF" stroke-opacity="0.25" stroke-width="1.6"></line><line x1="292.3" y1="270.3" x2="303.2" y2="271.5" stroke="#FFFFFF" stroke-opacity="0.50" stroke-width="1.6"></line><line x1="299.1" y1="532.5" x2="310.0" y2="531.0" stroke="#FFFFFF" stroke-opacity="0.31" stroke-width="1.6"></line><line x1="974.2" y1="534.5" x2="985.1" y2="536.0" stroke="#FFFFFF" stroke-opacity="0.47" stroke-width="1.6"></line><line x1="1219.4" y1="244.8" x2="1230.4" y2="245.1" stroke="#FFFFFF" stroke-opacity="0.28" stroke-width="1.6"></line><line x1="1126.5" y1="291.2" x2="1137.5" y2="291.5" stroke="#FFFFFF" stroke-opacity="0.28" stroke-width="1.6"></line><line x1="580.6" y1="244.2" x2="591.6" y2="243.5" stroke="#FFFFFF" stroke-opacity="0.52" stroke-width="1.6"></line><line x1="983.6" y1="492.6" x2="994.5" y2="494.0" stroke="#FFFFFF" stroke-opacity="0.42" stroke-width="1.6"></line><line x1="1143.2" y1="488.4" x2="1154.1" y2="486.9" stroke="#FFFFFF" stroke-opacity="0.37" stroke-width="1.6"></line><line x1="1153.4" y1="295.2" x2="1164.4" y2="296.1" stroke="#FFFFFF" stroke-opacity="0.31" stroke-width="1.6"></line><line x1="303.0" y1="455.5" x2="314.0" y2="454.8" stroke="#FFFFFF" stroke-opacity="0.25" stroke-width="1.6"></line><line x1="881.1" y1="590.6" x2="892.0" y2="592.1" stroke="#FFFFFF" stroke-opacity="0.51" stroke-width="1.6"></line><line x1="821.4" y1="554.8" x2="832.3" y2="556.1" stroke="#FFFFFF" stroke-opacity="0.27" stroke-width="1.6"></line><line x1="832.5" y1="512.4" x2="843.5" y2="512.3" stroke="#FFFFFF" stroke-opacity="0.33" stroke-width="1.6"></line><line x1="1451.1" y1="260.9" x2="1462.1" y2="260.3" stroke="#FFFFFF" stroke-opacity="0.51" stroke-width="1.6"></line><line x1="756.9" y1="575.7" x2="767.9" y2="575.9" stroke="#FFFFFF" stroke-opacity="0.55" stroke-width="1.6"></line><line x1="643.5" y1="389.4" x2="654.4" y2="390.6" stroke="#FFFFFF" stroke-opacity="0.38" stroke-width="1.6"></line><line x1="248.9" y1="279.9" x2="259.9" y2="280.2" stroke="#FFFFFF" stroke-opacity="0.28" stroke-width="1.6"></line><line x1="234.7" y1="580.5" x2="245.6" y2="579.1" stroke="#FFFFFF" stroke-opacity="0.42" stroke-width="1.6"></line><line x1="891.3" y1="297.6" x2="902.3" y2="297.6" stroke="#FFFFFF" stroke-opacity="0.53" stroke-width="1.6"></line><line x1="219.7" y1="539.8" x2="230.6" y2="539.0" stroke="#FFFFFF" stroke-opacity="0.33" stroke-width="1.6"></line><line x1="200.2" y1="381.1" x2="211.2" y2="382.3" stroke="#FFFFFF" stroke-opacity="0.36" stroke-width="1.6"></line><line x1="305.1" y1="353.3" x2="316.1" y2="354.4" stroke="#FFFFFF" stroke-opacity="0.29" stroke-width="1.6"></line><line x1="1334.6" y1="437.0" x2="1345.5" y2="436.2" stroke="#FFFFFF" stroke-opacity="0.39" stroke-width="1.6"></line><line x1="1465.0" y1="344.2" x2="1476.0" y2="344.3" stroke="#FFFFFF" stroke-opacity="0.42" stroke-width="1.6"></line><line x1="853.8" y1="308.1" x2="864.8" y2="308.9" stroke="#FFFFFF" stroke-opacity="0.40" stroke-width="1.6"></line><line x1="1400.3" y1="326.3" x2="1411.2" y2="325.0" stroke="#FFFFFF" stroke-opacity="0.39" stroke-width="1.6"></line><line x1="668.0" y1="256.7" x2="678.9" y2="255.2" stroke="#FFFFFF" stroke-opacity="0.32" stroke-width="1.6"></line><line x1="974.7" y1="213.2" x2="985.7" y2="213.5" stroke="#FFFFFF" stroke-opacity="0.28" stroke-width="1.6"></line><line x1="1122.6" y1="268.8" x2="1133.6" y2="269.0" stroke="#FFFFFF" stroke-opacity="0.31" stroke-width="1.6"></line><line x1="702.0" y1="518.9" x2="712.9" y2="517.4" stroke="#FFFFFF" stroke-opacity="0.43" stroke-width="1.6"></line><line x1="937.7" y1="474.4" x2="948.6" y2="475.9" stroke="#FFFFFF" stroke-opacity="0.36" stroke-width="1.6"></line><polyline points="560,371.6 564,372.3 568,372.9 572,373.5 576,374.0 580,374.2 584,374.1 588,373.7 592,372.7 596,371.3 600,369.5 604,367.2 608,364.6 612,361.8 616,359.1 620,356.6 624,354.8 628,353.7 632,353.8 636,355.2 640,358.0 644,362.3 648,368.0 652,375.0 656,382.8 660,390.9 664,398.9 668,405.9 672,411.4 676,414.6 680,415.0 684,412.2 688,405.9 692,396.1 696,383.2 700,367.8 704,350.8 708,333.2 712,316.3 716,301.5 720,289.9 724,282.9 728,281.2 732,285.5 736,295.9 740,312.1 744,333.3 748,358.3 752,385.6 756,413.4 760,439.6 764,462.5 768,480.1 772,491.2 776,494.6 780,490.0 784,477.5 788,457.7 792,432.0 796,402.1 800,370.0 804,337.9 808,308.0 812,282.3 816,262.5 820,250.0 824,245.4 828,248.8 832,259.9 836,277.5 840,300.4 844,326.6 848,354.4 852,381.7 856,406.7 860,427.9 864,444.1 868,454.5 872,458.8 876,457.1 880,450.1 884,438.5 888,423.7 892,406.8 896,389.2 900,372.2 904,356.8 908,343.9 912,334.1 916,327.8 920,325.0 924,325.4 928,328.6 932,334.1 936,341.1 940,349.1 944,357.2 948,365.0 952,372.0 956,377.7 960,382.0 964,384.8 968,386.2 972,386.3 976,385.2 980,383.4 984,380.9 988,378.2 992,375.4 996,372.8 1000,370.5 1004,368.7 1008,367.3 1012,366.3 1016,365.9 1020,365.8 1024,366.0 1028,366.5 1032,367.1 1036,367.7 1040,368.4 " fill="none" stroke="#00FF00" stroke-width="2.6" stroke-opacity="1"></polyline><text x="768" y="212" fill="#00FF00" font-size="22" font-family="&#39;IBM Plex Mono&#39;,Menlo,Consolas,monospace">ψ(x)</text><text x="80" y="796" fill="#FFFFFF" font-size="46" font-weight="700" letter-spacing="-1">El campo y la excitación</text><text x="82" y="840" fill="#00FF66" font-size="17" letter-spacing="9">FARADAY VIO LAS LÍNEAS ANTES DEL LENGUAJE · UNA NOTA SOSTENIDA</text><text x="1520" y="112" fill="#00FF00" font-size="22" text-anchor="end" font-family="&#39;IBM Plex Mono&#39;,Menlo,Consolas,monospace">I</text></svg>