<svg xmlns="http://www.w3.org/2000/svg" width="1600" height="900" viewBox="0 0 1600 900" font-family="Helvetica, Arial, sans-serif"><rect width="1600" height="900" fill="#000000"></rect><line x1="100" y1="0" x2="100" y2="900" stroke="#FFFFFF" stroke-opacity="0.05"></line><line x1="200" y1="0" x2="200" y2="900" stroke="#FFFFFF" stroke-opacity="0.05"></line><line x1="300" y1="0" x2="300" y2="900" stroke="#FFFFFF" stroke-opacity="0.05"></line><line x1="400" y1="0" x2="400" y2="900" stroke="#FFFFFF" stroke-opacity="0.05"></line><line x1="500" y1="0" x2="500" y2="900" stroke="#FFFFFF" stroke-opacity="0.05"></line><line x1="600" y1="0" x2="600" y2="900" stroke="#FFFFFF" stroke-opacity="0.05"></line><line x1="700" y1="0" x2="700" y2="900" stroke="#FFFFFF" stroke-opacity="0.05"></line><line x1="800" y1="0" x2="800" y2="900" stroke="#FFFFFF" stroke-opacity="0.05"></line><line x1="900" y1="0" x2="900" y2="900" stroke="#FFFFFF" stroke-opacity="0.05"></line><line x1="1000" y1="0" x2="1000" y2="900" stroke="#FFFFFF" stroke-opacity="0.05"></line><line x1="1100" y1="0" x2="1100" y2="900" stroke="#FFFFFF" stroke-opacity="0.05"></line><line x1="1200" y1="0" x2="1200" y2="900" stroke="#FFFFFF" stroke-opacity="0.05"></line><line x1="1300" y1="0" x2="1300" y2="900" stroke="#FFFFFF" stroke-opacity="0.05"></line><line x1="1400" y1="0" x2="1400" y2="900" stroke="#FFFFFF" stroke-opacity="0.05"></line><line x1="1500" y1="0" x2="1500" y2="900" stroke="#FFFFFF" stroke-opacity="0.05"></line><line x1="0" y1="100" x2="1600" y2="100" stroke="#FFFFFF" stroke-opacity="0.05"></line><line x1="0" y1="200" x2="1600" y2="200" stroke="#FFFFFF" stroke-opacity="0.05"></line><line x1="0" y1="300" x2="1600" y2="300" stroke="#FFFFFF" stroke-opacity="0.05"></line><line x1="0" y1="400" x2="1600" y2="400" stroke="#FFFFFF" stroke-opacity="0.05"></line><line x1="0" y1="500" x2="1600" y2="500" stroke="#FFFFFF" stroke-opacity="0.05"></line><line x1="0" y1="600" x2="1600" y2="600" stroke="#FFFFFF" stroke-opacity="0.05"></line><line x1="0" y1="700" x2="1600" y2="700" stroke="#FFFFFF" stroke-opacity="0.05"></line><line x1="0" y1="800" x2="1600" y2="800" stroke="#FFFFFF" stroke-opacity="0.05"></line><line x1="1054" y1="393" x2="1102" y2="565" stroke="#FFFFFF" stroke-opacity="0.22" stroke-width="1.3"></line><line x1="1054" y1="393" x2="1016" y2="571" stroke="#FFFFFF" stroke-opacity="0.1" stroke-width="1.3"></line><line x1="1102" y1="565" x2="1016" y2="571" stroke="#FFFFFF" stroke-opacity="0.22" stroke-width="1.3"></line><line x1="1102" y1="565" x2="896" y2="591" stroke="#FFFFFF" stroke-opacity="0.1" stroke-width="1.3"></line><line x1="1016" y1="571" x2="896" y2="591" stroke="#FFFFFF" stroke-opacity="0.22" stroke-width="1.3"></line><line x1="1016" y1="571" x2="749" y2="652" stroke="#FFFFFF" stroke-opacity="0.1" stroke-width="1.3"></line><line x1="896" y1="591" x2="749" y2="652" stroke="#FFFFFF" stroke-opacity="0.22" stroke-width="1.3"></line><line x1="896" y1="591" x2="691" y2="578" stroke="#FFFFFF" stroke-opacity="0.1" stroke-width="1.3"></line><line x1="749" y1="652" x2="691" y2="578" stroke="#FFFFFF" stroke-opacity="0.22" stroke-width="1.3"></line><line x1="749" y1="652" x2="494" y2="526" stroke="#FFFFFF" stroke-opacity="0.1" stroke-width="1.3"></line><line x1="691" y1="578" x2="494" y2="526" stroke="#FFFFFF" stroke-opacity="0.22" stroke-width="1.3"></line><line x1="691" y1="578" x2="501" y2="495" stroke="#FFFFFF" stroke-opacity="0.1" stroke-width="1.3"></line><line x1="494" y1="526" x2="501" y2="495" stroke="#FFFFFF" stroke-opacity="0.22" stroke-width="1.3"></line><line x1="494" y1="526" x2="451" y2="409" stroke="#FFFFFF" stroke-opacity="0.1" stroke-width="1.3"></line><line x1="501" y1="495" x2="451" y2="409" stroke="#FFFFFF" stroke-opacity="0.22" stroke-width="1.3"></line><line x1="501" y1="495" x2="424" y2="304" stroke="#FFFFFF" stroke-opacity="0.1" stroke-width="1.3"></line><line x1="451" y1="409" x2="424" y2="304" stroke="#FFFFFF" stroke-opacity="0.22" stroke-width="1.3"></line><line x1="451" y1="409" x2="549" y2="239" stroke="#FFFFFF" stroke-opacity="0.1" stroke-width="1.3"></line><line x1="424" y1="304" x2="549" y2="239" stroke="#FFFFFF" stroke-opacity="0.22" stroke-width="1.3"></line><line x1="424" y1="304" x2="729" y2="275" stroke="#FFFFFF" stroke-opacity="0.1" stroke-width="1.3"></line><line x1="549" y1="239" x2="729" y2="275" stroke="#FFFFFF" stroke-opacity="0.22" stroke-width="1.3"></line><line x1="549" y1="239" x2="843" y2="256" stroke="#FFFFFF" stroke-opacity="0.1" stroke-width="1.3"></line><line x1="729" y1="275" x2="843" y2="256" stroke="#FFFFFF" stroke-opacity="0.22" stroke-width="1.3"></line><line x1="729" y1="275" x2="1070" y2="265" stroke="#FFFFFF" stroke-opacity="0.1" stroke-width="1.3"></line><line x1="843" y1="256" x2="1070" y2="265" stroke="#FFFFFF" stroke-opacity="0.22" stroke-width="1.3"></line><line x1="843" y1="256" x2="1141" y2="286" stroke="#FFFFFF" stroke-opacity="0.1" stroke-width="1.3"></line><line x1="1070" y1="265" x2="1141" y2="286" stroke="#FFFFFF" stroke-opacity="0.22" stroke-width="1.3"></line><line x1="1070" y1="265" x2="1054" y2="393" stroke="#FFFFFF" stroke-opacity="0.1" stroke-width="1.3"></line><line x1="1141" y1="286" x2="1054" y2="393" stroke="#FFFFFF" stroke-opacity="0.22" stroke-width="1.3"></line><line x1="1141" y1="286" x2="1102" y2="565" stroke="#FFFFFF" stroke-opacity="0.1" stroke-width="1.3"></line><circle cx="1054" cy="393" r="4.5" fill="#FFFFFF" fill-opacity="0.9"></circle><circle cx="1102" cy="565" r="4.5" fill="#FFFFFF" fill-opacity="0.9"></circle><circle cx="1016" cy="571" r="4.5" fill="#FFFFFF" fill-opacity="0.9"></circle><circle cx="896" cy="591" r="4.5" fill="#FFFFFF" fill-opacity="0.9"></circle><circle cx="749" cy="652" r="4.5" fill="#FFFFFF" fill-opacity="0.9"></circle><circle cx="691" cy="578" r="4.5" fill="#FFFFFF" fill-opacity="0.9"></circle><circle cx="494" cy="526" r="4.5" fill="#FFFFFF" fill-opacity="0.9"></circle><circle cx="501" cy="495" r="4.5" fill="#FFFFFF" fill-opacity="0.9"></circle><circle cx="451" cy="409" r="4.5" fill="#FFFFFF" fill-opacity="0.9"></circle><circle cx="424" cy="304" r="4.5" fill="#FFFFFF" fill-opacity="0.9"></circle><circle cx="549" cy="239" r="4.5" fill="#FFFFFF" fill-opacity="0.9"></circle><circle cx="729" cy="275" r="4.5" fill="#FFFFFF" fill-opacity="0.9"></circle><circle cx="843" cy="256" r="4.5" fill="#FFFFFF" fill-opacity="0.9"></circle><circle cx="1070" cy="265" r="4.5" fill="#FFFFFF" fill-opacity="0.9"></circle><circle cx="1141" cy="286" r="4.5" fill="#FFFFFF" fill-opacity="0.9"></circle><circle cx="800" cy="430" r="80" fill="none" stroke="#00FF00" stroke-width="1.8" stroke-dasharray="5 8"></circle><text x="800" y="440" fill="#00FF00" font-size="26" text-anchor="middle" font-family="&#39;IBM Plex Mono&#39;,Menlo,Consolas,monospace">∅</text><text x="80" y="796" fill="#FFFFFF" font-size="46" font-weight="700" letter-spacing="-1">Narración sin narrador</text><text x="82" y="840" fill="#00FF66" font-size="17" letter-spacing="9">PROCESOS SIN CENTRO · VARELA · THE EMBODIED MIND · 1991</text><text x="1520" y="112" fill="#00FF00" font-size="22" text-anchor="end" font-family="&#39;IBM Plex Mono&#39;,Menlo,Consolas,monospace">V</text></svg>