<svg xmlns="http://www.w3.org/2000/svg" width="1600" height="900" viewBox="0 0 1600 900" font-family="Helvetica, Arial, sans-serif"><rect width="1600" height="900" fill="#000000"></rect><line x1="100" y1="0" x2="100" y2="900" stroke="#FFFFFF" stroke-opacity="0.05"></line><line x1="200" y1="0" x2="200" y2="900" stroke="#FFFFFF" stroke-opacity="0.05"></line><line x1="300" y1="0" x2="300" y2="900" stroke="#FFFFFF" stroke-opacity="0.05"></line><line x1="400" y1="0" x2="400" y2="900" stroke="#FFFFFF" stroke-opacity="0.05"></line><line x1="500" y1="0" x2="500" y2="900" stroke="#FFFFFF" stroke-opacity="0.05"></line><line x1="600" y1="0" x2="600" y2="900" stroke="#FFFFFF" stroke-opacity="0.05"></line><line x1="700" y1="0" x2="700" y2="900" stroke="#FFFFFF" stroke-opacity="0.05"></line><line x1="800" y1="0" x2="800" y2="900" stroke="#FFFFFF" stroke-opacity="0.05"></line><line x1="900" y1="0" x2="900" y2="900" stroke="#FFFFFF" stroke-opacity="0.05"></line><line x1="1000" y1="0" x2="1000" y2="900" stroke="#FFFFFF" stroke-opacity="0.05"></line><line x1="1100" y1="0" x2="1100" y2="900" stroke="#FFFFFF" stroke-opacity="0.05"></line><line x1="1200" y1="0" x2="1200" y2="900" stroke="#FFFFFF" stroke-opacity="0.05"></line><line x1="1300" y1="0" x2="1300" y2="900" stroke="#FFFFFF" stroke-opacity="0.05"></line><line x1="1400" y1="0" x2="1400" y2="900" stroke="#FFFFFF" stroke-opacity="0.05"></line><line x1="1500" y1="0" x2="1500" y2="900" stroke="#FFFFFF" stroke-opacity="0.05"></line><line x1="0" y1="100" x2="1600" y2="100" stroke="#FFFFFF" stroke-opacity="0.05"></line><line x1="0" y1="200" x2="1600" y2="200" stroke="#FFFFFF" stroke-opacity="0.05"></line><line x1="0" y1="300" x2="1600" y2="300" stroke="#FFFFFF" stroke-opacity="0.05"></line><line x1="0" y1="400" x2="1600" y2="400" stroke="#FFFFFF" stroke-opacity="0.05"></line><line x1="0" y1="500" x2="1600" y2="500" stroke="#FFFFFF" stroke-opacity="0.05"></line><line x1="0" y1="600" x2="1600" y2="600" stroke="#FFFFFF" stroke-opacity="0.05"></line><line x1="0" y1="700" x2="1600" y2="700" stroke="#FFFFFF" stroke-opacity="0.05"></line><line x1="0" y1="800" x2="1600" y2="800" stroke="#FFFFFF" stroke-opacity="0.05"></line><polyline points="1133.0,427.0 1132.8,436.4 1132.2,445.7 1131.2,455.0 1129.9,464.2 1128.1,473.2 1126.0,482.1 1123.5,490.7 1120.7,499.1 1117.6,507.2 1114.1,515.0 1110.4,522.5 1106.4,529.7 1102.1,536.5 1097.6,543.0 1092.9,549.0 1088.0,554.7 1083.0,560.0 1077.8,564.8 1072.4,569.3 1066.9,573.4 1061.4,577.0 1055.7,580.3 1050.0,583.2 1044.3,585.7 1038.5,587.8 1032.7,589.5 1026.9,590.9 1021.1,592.0 1015.3,592.7 1009.5,593.1 1003.8,593.2 998.1,592.9 992.5,592.5 986.9,591.7 981.4,590.7 975.9,589.4 970.5,587.9 965.2,586.2 960.0,584.2 954.8,582.1 949.7,579.8 944.7,577.3 939.8,574.6 934.9,571.8 930.1,568.8 925.4,565.7 920.8,562.5 916.3,559.1 911.8,555.7 907.4,552.1 903.1,548.4 898.8,544.7 894.6,540.8 890.5,536.9 886.4,532.9 882.4,528.8 878.5,524.7 874.6,520.5 870.8,516.2 867.0,511.9 863.3,507.6 859.6,503.2 855.9,498.8 852.3,494.3 848.8,489.8 845.3,485.3 841.8,480.7 838.3,476.2 834.9,471.6 831.5,466.9 828.1,462.3 824.7,457.6 821.4,453.0 818.0,448.3 814.7,443.6 811.4,438.9 808.1,434.2 804.8,429.5 801.5,424.8 798.2,420.1 794.9,415.4 791.6,410.8 788.2,406.1 784.9,401.4 781.6,396.7 778.2,392.1 774.8,387.4 771.4,382.8 768.0,378.2 764.5,373.6 761.0,369.1 757.5,364.5 753.9,360.0 750.4,355.6 746.7,351.1 743.0,346.8 739.3,342.4 735.5,338.1 731.7,333.8 727.8,329.6 723.9,325.5 719.9,321.4 715.8,317.4 711.7,313.5 707.5,309.6 703.3,305.9 699.0,302.2 694.6,298.6 690.1,295.1 685.6,291.8 680.9,288.5 676.3,285.4 671.5,282.4 666.6,279.6 661.7,276.9 656.7,274.4 651.6,272.1 646.4,269.9 641.2,268.0 635.9,266.2 630.5,264.7 625.1,263.4 619.6,262.4 614.0,261.6 608.3,261.1 602.7,260.8 596.9,260.9 591.2,261.3 585.4,262.0 579.6,263.0 573.8,264.3 568.0,266.1 562.2,268.1 556.4,270.6 550.7,273.4 545.1,276.7 539.5,280.3 534.0,284.3 528.7,288.8 523.4,293.6 518.4,298.9 513.4,304.5 508.7,310.5 504.2,316.9 499.9,323.7 495.9,330.9 492.1,338.4 488.7,346.2 485.5,354.2 482.7,362.6 480.2,371.2 478.0,380.1 476.3,389.1 474.9,398.2 473.9,407.5 473.2,416.9 473.0,426.3 473.2,435.6 473.7,445.0 474.7,454.3 476.0,463.5 477.7,472.5 479.8,481.4 482.3,490.0 485.0,498.4 488.2,506.6 491.6,514.4 495.3,522.0 499.3,529.2 503.5,536.0 508.0,542.5 512.7,548.6 517.6,554.3 522.6,559.6 527.8,564.5 533.2,569.0 538.6,573.1 544.2,576.8 549.8,580.1 555.5,583.0 561.3,585.5 567.1,587.6 572.9,589.4 578.7,590.8 584.5,591.9 590.3,592.6 596.0,593.1 601.8,593.2 607.4,593.0 613.1,592.5 618.7,591.8 624.2,590.8 629.7,589.5 635.0,588.0 640.4,586.3 645.6,584.4 650.8,582.3 655.9,580.0 660.9,577.5 665.9,574.8 670.7,572.0 675.5,569.1 680.2,566.0 684.8,562.8 689.4,559.4 693.9,556.0 698.3,552.4 702.6,548.7 706.9,545.0 711.1,541.1 715.2,537.2 719.3,533.2 723.3,529.1 727.2,525.0 731.1,520.8 734.9,516.6 738.7,512.3 742.4,507.9 746.1,503.6 749.8,499.1 753.4,494.7 756.9,490.2 760.5,485.7 764.0,481.1 767.4,476.5 770.9,471.9 774.3,467.3 777.7,462.7 781.0,458.0 784.4,453.4 787.7,448.7 791.0,444.0 794.3,439.3 797.7,434.6 801.0,429.9 804.3,425.2 807.6,420.5 810.9,415.8 814.2,411.1 817.5,406.4 820.8,401.8 824.2,397.1 827.5,392.4 830.9,387.8 834.3,383.2 837.7,378.6 841.2,374.0 844.7,369.4 848.2,364.9 851.8,360.4 855.4,355.9 859.0,351.5 862.7,347.1 866.4,342.7 870.2,338.4 874.0,334.2 877.9,330.0 881.8,325.8 885.8,321.8 889.8,317.7 894.0,313.8 898.1,309.9 902.4,306.2 906.7,302.5 911.1,298.9 915.5,295.4 920.1,292.0 924.7,288.8 929.4,285.7 934.1,282.7 939.0,279.8 943.9,277.1 948.9,274.6 954.0,272.3 959.1,270.1 964.4,268.1 969.7,266.4 975.1,264.8 980.5,263.5 986.0,262.5 991.6,261.7 997.2,261.1 1002.9,260.9 1008.6,260.9 1014.4,261.2 1020.1,261.9 1025.9,262.9 1031.8,264.2 1037.6,265.9 1043.3,268.0 1049.1,270.4 1054.8,273.2 1060.5,276.4 1066.0,280.0 1071.5,284.0 1076.9,288.4 1082.2,293.2 1087.2,298.4 1092.2,304.0 1096.9,310.0 1101.4,316.4 1105.7,323.2 1109.8,330.3 1113.6,337.7 1117.1,345.5 1120.2,353.6 1123.1,361.9 1125.6,370.5 1127.8,379.4 1129.6,388.3 1131.0,397.5 1132.1,406.8 1132.7,416.1 1133.0,425.5 1132.9,434.9 " fill="none" stroke="#FFFFFF" stroke-width="1.4" stroke-opacity="0.22"></polyline><polyline points="1130.0,430.0 1129.8,439.4 1129.2,448.7 1128.2,458.0 1126.9,467.2 1125.1,476.2 1123.0,485.1 1120.5,493.7 1117.7,502.1 1114.6,510.2 1111.1,518.0 1107.4,525.5 1103.4,532.7 1099.1,539.5 1094.6,546.0 1089.9,552.0 1085.0,557.7 1080.0,563.0 1074.8,567.8 1069.4,572.3 1063.9,576.4 1058.4,580.0 1052.7,583.3 1047.0,586.2 1041.3,588.7 1035.5,590.8 1029.7,592.5 1023.9,593.9 1018.1,595.0 1012.3,595.7 1006.5,596.1 1000.8,596.2 995.1,595.9 989.5,595.5 983.9,594.7 978.4,593.7 972.9,592.4 967.5,590.9 962.2,589.2 957.0,587.2 951.8,585.1 946.7,582.8 941.7,580.3 936.8,577.6 931.9,574.8 927.1,571.8 922.4,568.7 917.8,565.5 913.3,562.1 908.8,558.7 904.4,555.1 900.1,551.4 895.8,547.7 891.6,543.8 887.5,539.9 883.4,535.9 879.4,531.8 875.5,527.7 871.6,523.5 867.8,519.2 864.0,514.9 860.3,510.6 856.6,506.2 852.9,501.8 849.3,497.3 845.8,492.8 842.3,488.3 838.8,483.7 835.3,479.2 831.9,474.6 828.5,469.9 825.1,465.3 821.7,460.6 818.4,456.0 815.0,451.3 811.7,446.6 808.4,441.9 805.1,437.2 801.8,432.5 798.5,427.8 795.2,423.1 791.9,418.4 788.6,413.8 785.2,409.1 781.9,404.4 778.6,399.7 775.2,395.1 771.8,390.4 768.4,385.8 765.0,381.2 761.5,376.6 758.0,372.1 754.5,367.5 750.9,363.0 747.4,358.6 743.7,354.1 740.0,349.8 736.3,345.4 732.5,341.1 728.7,336.8 724.8,332.6 720.9,328.5 716.9,324.4 712.8,320.4 708.7,316.5 704.5,312.6 700.3,308.9 696.0,305.2 691.6,301.6 687.1,298.1 682.6,294.8 677.9,291.5 673.3,288.4 668.5,285.4 663.6,282.6 658.7,279.9 653.7,277.4 648.6,275.1 643.4,272.9 638.2,271.0 632.9,269.2 627.5,267.7 622.1,266.4 616.6,265.4 611.0,264.6 605.3,264.1 599.7,263.8 593.9,263.9 588.2,264.3 582.4,265.0 576.6,266.0 570.8,267.3 565.0,269.1 559.2,271.1 553.4,273.6 547.7,276.4 542.1,279.7 536.5,283.3 531.0,287.3 525.7,291.8 520.4,296.6 515.4,301.9 510.4,307.5 505.7,313.5 501.2,319.9 496.9,326.7 492.9,333.9 489.1,341.4 485.7,349.2 482.5,357.2 479.7,365.6 477.2,374.2 475.0,383.1 473.3,392.1 471.9,401.2 470.9,410.5 470.2,419.9 470.0,429.3 470.2,438.6 470.7,448.0 471.7,457.3 473.0,466.5 474.7,475.5 476.8,484.4 479.3,493.0 482.0,501.4 485.2,509.6 488.6,517.4 492.3,525.0 496.3,532.2 500.5,539.0 505.0,545.5 509.7,551.6 514.6,557.3 519.6,562.6 524.8,567.5 530.2,572.0 535.6,576.1 541.2,579.8 546.8,583.1 552.5,586.0 558.3,588.5 564.1,590.6 569.9,592.4 575.7,593.8 581.5,594.9 587.3,595.6 593.0,596.1 598.8,596.2 604.4,596.0 610.1,595.5 615.7,594.8 621.2,593.8 626.7,592.5 632.0,591.0 637.4,589.3 642.6,587.4 647.8,585.3 652.9,583.0 657.9,580.5 662.9,577.8 667.7,575.0 672.5,572.1 677.2,569.0 681.8,565.8 686.4,562.4 690.9,559.0 695.3,555.4 699.6,551.7 703.9,548.0 708.1,544.1 712.2,540.2 716.3,536.2 720.3,532.1 724.2,528.0 728.1,523.8 731.9,519.6 735.7,515.3 739.4,510.9 743.1,506.6 746.8,502.1 750.4,497.7 753.9,493.2 757.5,488.7 761.0,484.1 764.4,479.5 767.9,474.9 771.3,470.3 774.7,465.7 778.0,461.0 781.4,456.4 784.7,451.7 788.0,447.0 791.3,442.3 794.7,437.6 798.0,432.9 801.3,428.2 804.6,423.5 807.9,418.8 811.2,414.1 814.5,409.4 817.8,404.8 821.2,400.1 824.5,395.4 827.9,390.8 831.3,386.2 834.7,381.6 838.2,377.0 841.7,372.4 845.2,367.9 848.8,363.4 852.4,358.9 856.0,354.5 859.7,350.1 863.4,345.7 867.2,341.4 871.0,337.2 874.9,333.0 878.8,328.8 882.8,324.8 886.8,320.7 891.0,316.8 895.1,312.9 899.4,309.2 903.7,305.5 908.1,301.9 912.5,298.4 917.1,295.0 921.7,291.8 926.4,288.7 931.1,285.7 936.0,282.8 940.9,280.1 945.9,277.6 951.0,275.3 956.1,273.1 961.4,271.1 966.7,269.4 972.1,267.8 977.5,266.5 983.0,265.5 988.6,264.7 994.2,264.1 999.9,263.9 1005.6,263.9 1011.4,264.2 1017.1,264.9 1022.9,265.9 1028.8,267.2 1034.6,268.9 1040.3,271.0 1046.1,273.4 1051.8,276.2 1057.5,279.4 1063.0,283.0 1068.5,287.0 1073.9,291.4 1079.2,296.2 1084.2,301.4 1089.2,307.0 1093.9,313.0 1098.4,319.4 1102.7,326.2 1106.8,333.3 1110.6,340.7 1114.1,348.5 1117.2,356.6 1120.1,364.9 1122.6,373.5 1124.8,382.4 1126.6,391.3 1128.0,400.5 1129.1,409.8 1129.7,419.1 1130.0,428.5 1129.9,437.9 " fill="none" stroke="#00FF00" stroke-width="2.6" stroke-opacity="1"></polyline><polygon points="1046,346 1066,360 1042,368" fill="#00FF00"></polygon><text x="560" y="430" fill="#FFFFFF" fill-opacity="0.6" font-size="19" text-anchor="middle" font-family="&#39;IBM Plex Mono&#39;,Menlo,Consolas,monospace">el que pregunta</text><text x="1046" y="430" fill="#FFFFFF" fill-opacity="0.6" font-size="19" text-anchor="middle" font-family="&#39;IBM Plex Mono&#39;,Menlo,Consolas,monospace">lo preguntado</text><text x="800" y="560" fill="#00FF66" font-size="18" text-anchor="middle" font-family="&#39;IBM Plex Mono&#39;,Menlo,Consolas,monospace" letter-spacing="6">SIN EXTERIOR</text><text x="80" y="796" fill="#FFFFFF" font-size="46" font-weight="700" letter-spacing="-1">El campo se dobla</text><text x="82" y="840" fill="#00FF66" font-size="17" letter-spacing="9">GÖDEL · INDECIDIBLE DESDE ADENTRO</text><text x="1520" y="112" fill="#00FF00" font-size="22" text-anchor="end" font-family="&#39;IBM Plex Mono&#39;,Menlo,Consolas,monospace">VIII</text></svg>