<svg xmlns="http://www.w3.org/2000/svg" width="1600" height="900" viewBox="0 0 1600 900" font-family="Helvetica, Arial, sans-serif"><rect width="1600" height="900" fill="#000000"></rect><line x1="100" y1="0" x2="100" y2="900" stroke="#FFFFFF" stroke-opacity="0.05"></line><line x1="200" y1="0" x2="200" y2="900" stroke="#FFFFFF" stroke-opacity="0.05"></line><line x1="300" y1="0" x2="300" y2="900" stroke="#FFFFFF" stroke-opacity="0.05"></line><line x1="400" y1="0" x2="400" y2="900" stroke="#FFFFFF" stroke-opacity="0.05"></line><line x1="500" y1="0" x2="500" y2="900" stroke="#FFFFFF" stroke-opacity="0.05"></line><line x1="600" y1="0" x2="600" y2="900" stroke="#FFFFFF" stroke-opacity="0.05"></line><line x1="700" y1="0" x2="700" y2="900" stroke="#FFFFFF" stroke-opacity="0.05"></line><line x1="800" y1="0" x2="800" y2="900" stroke="#FFFFFF" stroke-opacity="0.05"></line><line x1="900" y1="0" x2="900" y2="900" stroke="#FFFFFF" stroke-opacity="0.05"></line><line x1="1000" y1="0" x2="1000" y2="900" stroke="#FFFFFF" stroke-opacity="0.05"></line><line x1="1100" y1="0" x2="1100" y2="900" stroke="#FFFFFF" stroke-opacity="0.05"></line><line x1="1200" y1="0" x2="1200" y2="900" stroke="#FFFFFF" stroke-opacity="0.05"></line><line x1="1300" y1="0" x2="1300" y2="900" stroke="#FFFFFF" stroke-opacity="0.05"></line><line x1="1400" y1="0" x2="1400" y2="900" stroke="#FFFFFF" stroke-opacity="0.05"></line><line x1="1500" y1="0" x2="1500" y2="900" stroke="#FFFFFF" stroke-opacity="0.05"></line><line x1="0" y1="100" x2="1600" y2="100" stroke="#FFFFFF" stroke-opacity="0.05"></line><line x1="0" y1="200" x2="1600" y2="200" stroke="#FFFFFF" stroke-opacity="0.05"></line><line x1="0" y1="300" x2="1600" y2="300" stroke="#FFFFFF" stroke-opacity="0.05"></line><line x1="0" y1="400" x2="1600" y2="400" stroke="#FFFFFF" stroke-opacity="0.05"></line><line x1="0" y1="500" x2="1600" y2="500" stroke="#FFFFFF" stroke-opacity="0.05"></line><line x1="0" y1="600" x2="1600" y2="600" stroke="#FFFFFF" stroke-opacity="0.05"></line><line x1="0" y1="700" x2="1600" y2="700" stroke="#FFFFFF" stroke-opacity="0.05"></line><line x1="0" y1="800" x2="1600" y2="800" stroke="#FFFFFF" stroke-opacity="0.05"></line><line x1="220" y1="600" x2="1380" y2="600" stroke="#FFFFFF" stroke-opacity="0.4" stroke-width="1.6"></line><rect x="352" y="300" width="6" height="300" fill="#FFFFFF" fill-opacity="0.85"></rect><rect x="447" y="450" width="6" height="150" fill="#FFFFFF" fill-opacity="0.85"></rect><rect x="542" y="500" width="6" height="100" fill="#FFFFFF" fill-opacity="0.85"></rect><rect x="637" y="525" width="6" height="75" fill="#FFFFFF" fill-opacity="0.85"></rect><rect x="732" y="540" width="6" height="60" fill="#FFFFFF" fill-opacity="0.85"></rect><rect x="827" y="550" width="6" height="50" fill="#FFFFFF" fill-opacity="0.85"></rect><rect x="922" y="557.1428571428571" width="6" height="42.857142857142854" fill="#FFFFFF" fill-opacity="0.85"></rect><rect x="1017" y="562.5" width="6" height="37.5" fill="#FFFFFF" fill-opacity="0.85"></rect><rect x="1112" y="566.6666666666666" width="6" height="33.333333333333336" fill="#FFFFFF" fill-opacity="0.85"></rect><rect x="1207" y="570" width="6" height="30" fill="#FFFFFF" fill-opacity="0.85"></rect><polyline points="355,290 450,440 545,490 640,515 735,530 830,540 925,547.1428571428571 1020,552.5 1115,556.6666666666666 1210,560 " fill="none" stroke="#00FF00" stroke-width="2.2" stroke-opacity="0.95"></polyline><polyline points="495,290 590,440 685,490 780,515 875,530 970,540 1065,547.1428571428571 1160,552.5 1255,556.6666666666666 1350,560 " fill="none" stroke="#00FF66" stroke-width="2" stroke-opacity="0.5" stroke-dasharray="6 7"></polyline><text x="355" y="636" fill="#FFFFFF" fill-opacity="0.5" font-size="17" text-anchor="middle" font-family="&#39;IBM Plex Mono&#39;,Menlo,Consolas,monospace">f</text><text x="450" y="636" fill="#FFFFFF" fill-opacity="0.5" font-size="17" text-anchor="middle" font-family="&#39;IBM Plex Mono&#39;,Menlo,Consolas,monospace">2f</text><text x="545" y="636" fill="#FFFFFF" fill-opacity="0.5" font-size="17" text-anchor="middle" font-family="&#39;IBM Plex Mono&#39;,Menlo,Consolas,monospace">3f</text><text x="1120" y="300" fill="#00FF66" font-size="18" font-family="&#39;IBM Plex Mono&#39;,Menlo,Consolas,monospace">misma forma · otras frecuencias</text><text x="80" y="796" fill="#FFFFFF" font-size="46" font-weight="700" letter-spacing="-1">La nota vacía</text><text x="82" y="840" fill="#00FF66" font-size="17" letter-spacing="9">2:1 LA OCTAVA · 3:2 LA QUINTA · EL TIMBRE ES RELACIÓN</text><text x="1520" y="112" fill="#00FF00" font-size="22" text-anchor="end" font-family="&#39;IBM Plex Mono&#39;,Menlo,Consolas,monospace">IV</text></svg>