<svg xmlns="http://www.w3.org/2000/svg" width="1600" height="900" viewBox="0 0 1600 900" font-family="Helvetica, Arial, sans-serif"><rect width="1600" height="900" fill="#000000"></rect><line x1="100" y1="0" x2="100" y2="900" stroke="#FFFFFF" stroke-opacity="0.05"></line><line x1="200" y1="0" x2="200" y2="900" stroke="#FFFFFF" stroke-opacity="0.05"></line><line x1="300" y1="0" x2="300" y2="900" stroke="#FFFFFF" stroke-opacity="0.05"></line><line x1="400" y1="0" x2="400" y2="900" stroke="#FFFFFF" stroke-opacity="0.05"></line><line x1="500" y1="0" x2="500" y2="900" stroke="#FFFFFF" stroke-opacity="0.05"></line><line x1="600" y1="0" x2="600" y2="900" stroke="#FFFFFF" stroke-opacity="0.05"></line><line x1="700" y1="0" x2="700" y2="900" stroke="#FFFFFF" stroke-opacity="0.05"></line><line x1="800" y1="0" x2="800" y2="900" stroke="#FFFFFF" stroke-opacity="0.05"></line><line x1="900" y1="0" x2="900" y2="900" stroke="#FFFFFF" stroke-opacity="0.05"></line><line x1="1000" y1="0" x2="1000" y2="900" stroke="#FFFFFF" stroke-opacity="0.05"></line><line x1="1100" y1="0" x2="1100" y2="900" stroke="#FFFFFF" stroke-opacity="0.05"></line><line x1="1200" y1="0" x2="1200" y2="900" stroke="#FFFFFF" stroke-opacity="0.05"></line><line x1="1300" y1="0" x2="1300" y2="900" stroke="#FFFFFF" stroke-opacity="0.05"></line><line x1="1400" y1="0" x2="1400" y2="900" stroke="#FFFFFF" stroke-opacity="0.05"></line><line x1="1500" y1="0" x2="1500" y2="900" stroke="#FFFFFF" stroke-opacity="0.05"></line><line x1="0" y1="100" x2="1600" y2="100" stroke="#FFFFFF" stroke-opacity="0.05"></line><line x1="0" y1="200" x2="1600" y2="200" stroke="#FFFFFF" stroke-opacity="0.05"></line><line x1="0" y1="300" x2="1600" y2="300" stroke="#FFFFFF" stroke-opacity="0.05"></line><line x1="0" y1="400" x2="1600" y2="400" stroke="#FFFFFF" stroke-opacity="0.05"></line><line x1="0" y1="500" x2="1600" y2="500" stroke="#FFFFFF" stroke-opacity="0.05"></line><line x1="0" y1="600" x2="1600" y2="600" stroke="#FFFFFF" stroke-opacity="0.05"></line><line x1="0" y1="700" x2="1600" y2="700" stroke="#FFFFFF" stroke-opacity="0.05"></line><line x1="0" y1="800" x2="1600" y2="800" stroke="#FFFFFF" stroke-opacity="0.05"></line><rect x="150" y="200" width="430" height="290" fill="none" stroke="#FFFFFF" stroke-opacity="0.75" stroke-width="1.6"></rect><rect x="190" y="392" width="56" height="56" fill="none" stroke="#FFFFFF" stroke-opacity="0.6" stroke-width="1.6"></rect><text x="218" y="427" fill="#FFFFFF" fill-opacity="0.55" font-size="20" text-anchor="middle" font-family="&#39;IBM Plex Mono&#39;,Menlo,Consolas,monospace">∅</text><rect x="286" y="352" width="96" height="96" fill="none" stroke="#FFFFFF" stroke-opacity="0.6" stroke-width="1.6"></rect><rect x="312" y="392" width="40" height="40" fill="none" stroke="#FFFFFF" stroke-opacity="0.45" stroke-width="1.6"></rect><rect x="420" y="302" width="146" height="146" fill="none" stroke="#FFFFFF" stroke-opacity="0.6" stroke-width="1.6"></rect><rect x="438" y="392" width="40" height="40" fill="none" stroke="#FFFFFF" stroke-opacity="0.45" stroke-width="1.6"></rect><rect x="494" y="348" width="56" height="56" fill="none" stroke="#FFFFFF" stroke-opacity="0.45" stroke-width="1.6"></rect><rect x="508" y="366" width="24" height="24" fill="none" stroke="#FFFFFF" stroke-opacity="0.35" stroke-width="1.6"></rect><text x="365" y="540" fill="#FFFFFF" fill-opacity="0.6" font-size="21" text-anchor="middle" font-family="&#39;IBM Plex Mono&#39;,Menlo,Consolas,monospace">3 = {0, 1, 2}</text><rect x="1030" y="195" width="300" height="300" fill="none" stroke="#FFFFFF" stroke-opacity="0.75" stroke-width="1.6"></rect><rect x="1074" y="239" width="212" height="212" fill="none" stroke="#FFFFFF" stroke-opacity="0.67" stroke-width="1.6"></rect><rect x="1114" y="279" width="132" height="132" fill="none" stroke="#FFFFFF" stroke-opacity="0.59" stroke-width="1.6"></rect><rect x="1148" y="313" width="64" height="64" fill="none" stroke="#FFFFFF" stroke-opacity="0.51" stroke-width="1.6"></rect><text x="1180" y="353" fill="#FFFFFF" fill-opacity="0.55" font-size="18" text-anchor="middle" font-family="&#39;IBM Plex Mono&#39;,Menlo,Consolas,monospace">∅</text><text x="1180" y="540" fill="#FFFFFF" fill-opacity="0.6" font-size="21" text-anchor="middle" font-family="&#39;IBM Plex Mono&#39;,Menlo,Consolas,monospace">3 = {{{∅}}}</text><text x="800" y="370" fill="#FFFFFF" font-size="54" text-anchor="middle" font-weight="700">≠</text><line x1="280" y1="660" x2="1320" y2="660" stroke="#FFFFFF" stroke-opacity="0.5" stroke-width="1.6"></line><line x1="330" y1="652" x2="330" y2="668" stroke="#FFFFFF" stroke-opacity="0.5" stroke-width="1.6"></line><text x="330" y="700" fill="#FFFFFF" fill-opacity="0.45" font-size="20" text-anchor="middle" font-family="&#39;IBM Plex Mono&#39;,Menlo,Consolas,monospace">0</text><line x1="435" y1="652" x2="435" y2="668" stroke="#FFFFFF" stroke-opacity="0.5" stroke-width="1.6"></line><text x="435" y="700" fill="#FFFFFF" fill-opacity="0.45" font-size="20" text-anchor="middle" font-family="&#39;IBM Plex Mono&#39;,Menlo,Consolas,monospace">1</text><line x1="540" y1="652" x2="540" y2="668" stroke="#FFFFFF" stroke-opacity="0.5" stroke-width="1.6"></line><text x="540" y="700" fill="#FFFFFF" fill-opacity="0.45" font-size="20" text-anchor="middle" font-family="&#39;IBM Plex Mono&#39;,Menlo,Consolas,monospace">2</text><line x1="645" y1="652" x2="645" y2="668" stroke="#FFFFFF" stroke-opacity="0.5" stroke-width="1.6"></line><text x="645" y="700" fill-opacity="1" font-size="20" text-anchor="middle" font-family="&#39;IBM Plex Mono&#39;,Menlo,Consolas,monospace" fill="#00FF00">3</text><line x1="750" y1="652" x2="750" y2="668" stroke="#FFFFFF" stroke-opacity="0.5" stroke-width="1.6"></line><text x="750" y="700" fill="#FFFFFF" fill-opacity="0.45" font-size="20" text-anchor="middle" font-family="&#39;IBM Plex Mono&#39;,Menlo,Consolas,monospace">4</text><line x1="855" y1="652" x2="855" y2="668" stroke="#FFFFFF" stroke-opacity="0.5" stroke-width="1.6"></line><text x="855" y="700" fill="#FFFFFF" fill-opacity="0.45" font-size="20" text-anchor="middle" font-family="&#39;IBM Plex Mono&#39;,Menlo,Consolas,monospace">5</text><line x1="960" y1="652" x2="960" y2="668" stroke="#FFFFFF" stroke-opacity="0.5" stroke-width="1.6"></line><text x="960" y="700" fill="#FFFFFF" fill-opacity="0.45" font-size="20" text-anchor="middle" font-family="&#39;IBM Plex Mono&#39;,Menlo,Consolas,monospace">6</text><line x1="1065" y1="652" x2="1065" y2="668" stroke="#FFFFFF" stroke-opacity="0.5" stroke-width="1.6"></line><text x="1065" y="700" fill="#FFFFFF" fill-opacity="0.45" font-size="20" text-anchor="middle" font-family="&#39;IBM Plex Mono&#39;,Menlo,Consolas,monospace">7</text><line x1="1170" y1="652" x2="1170" y2="668" stroke="#FFFFFF" stroke-opacity="0.5" stroke-width="1.6"></line><text x="1170" y="700" fill="#FFFFFF" fill-opacity="0.45" font-size="20" text-anchor="middle" font-family="&#39;IBM Plex Mono&#39;,Menlo,Consolas,monospace">8</text><line x1="1275" y1="652" x2="1275" y2="668" stroke="#FFFFFF" stroke-opacity="0.5" stroke-width="1.6"></line><text x="1275" y="700" fill="#FFFFFF" fill-opacity="0.45" font-size="20" text-anchor="middle" font-family="&#39;IBM Plex Mono&#39;,Menlo,Consolas,monospace">9</text><circle cx="645" cy="660" r="13" fill="none" stroke="#00FF00" stroke-width="2.6"></circle><path d="M 365 560 Q 480 630 631 652" fill="none" stroke="#00FF00" stroke-width="1.6" stroke-dasharray="5 7" stroke-opacity="0.8"></path><path d="M 1180 560 Q 940 640 661 654" fill="none" stroke="#00FF00" stroke-width="1.6" stroke-dasharray="5 7" stroke-opacity="0.8"></path><text x="80" y="796" fill="#FFFFFF" font-size="46" font-weight="700" letter-spacing="-1">El tres es una posición</text><text x="82" y="840" fill="#00FF66" font-size="17" letter-spacing="9">BENACERRAF · WHAT NUMBERS COULD NOT BE · 1965</text><text x="1520" y="112" fill="#00FF00" font-size="22" text-anchor="end" font-family="&#39;IBM Plex Mono&#39;,Menlo,Consolas,monospace">III</text></svg>